<svg xmlns="http://www.w3.org/2000/svg" viewBox="0 0 150.41 150.49">
  <defs>
    <style>
      .cls-1 {
        fill: #fff;
        stroke: #fff;
        stroke-miterlimit: 10;
        stroke-width: 2px;
      }
    </style>
  </defs>
  <g id="Layer_2" data-name="Layer 2">
    <g id="white">
      <g id="drum-top">
        <g>
          <path class="cls-1" d="M142.09,52.09A48.7,48.7,0,0,0,129,43.81L148.21,24.6l-5.83-5.82L120.59,40.56a123.44,123.44,0,0,0-17.91-4.31,168.15,168.15,0,0,0-27.47-2.19,168.06,168.06,0,0,0-27.47,2.19,114.42,114.42,0,0,0-22.88,6.1c-7,2.74-12.53,6-16.53,9.74C2.27,57.72,1,63.33,1,67v49.47c0,3.71,1.27,9.32,7.33,15,4,3.72,9.56,7,16.53,9.74a113.75,113.75,0,0,0,22.88,6.1,168.06,168.06,0,0,0,27.47,2.19,168.15,168.15,0,0,0,27.47-2.19,113.65,113.65,0,0,0,22.87-6.1c7-2.74,12.54-6,16.54-9.74,6-5.63,7.32-11.24,7.32-15V67C149.41,63.33,148.14,57.72,142.09,52.09ZM16.75,122.4a10.27,10.27,0,0,1-3.3-5,4.91,4.91,0,0,1-.08-.86V89l9.38,37.62A30.32,30.32,0,0,1,16.75,122.4ZM21,85.57c1.95,1,4.06,1.87,6.35,2.73a108.51,108.51,0,0,0,16.41,4.58L30,121.75Zm41.72,51.08h-.13q-6.2-.48-12.13-1.44a115.8,115.8,0,0,1-15.39-3.52l-.47-.15-.09,0L49.81,99.4l17.81,37.53C66,136.85,64.35,136.77,62.74,136.65Zm-6-41.77a168.59,168.59,0,0,0,18.42,1,168.26,168.26,0,0,0,18.41-1L75.21,133.69Zm59,36.66-.46.14a115.8,115.8,0,0,1-15.39,3.52c-4,.64-8,1.12-12.13,1.44h-.13c-1.61.12-3.25.2-4.88.28L100.61,99.4l15.28,32.1Zm4.59-9.79L106.63,92.88A107.34,107.34,0,0,0,123,88.29a69,69,0,0,0,6.36-2.73Zm16.67-5.24a4.92,4.92,0,0,1-.09.86,10.32,10.32,0,0,1-3.29,5,30.93,30.93,0,0,1-6,4.19L137.05,89Zm-3.87-43.06c-3,2.57-7.46,5-13,7.12a106.78,106.78,0,0,1-20.21,5.16,156.36,156.36,0,0,1-24.73,1.92,156.58,156.58,0,0,1-24.74-1.92,106.47,106.47,0,0,1-20.2-5.16,43.62,43.62,0,0,1-13-7.12c-1.76-1.53-3.86-3.89-3.86-6.41,0-2.27,1.84-4.46,3.38-5.89,2.82-2.63,7.19-5.15,12.65-7.3a101.73,101.73,0,0,1,20.37-5.4,155.54,155.54,0,0,1,25.44-2,155.51,155.51,0,0,1,25.43,2q5.25.88,10,2.09L97,64.13,102.86,70l16.66-16.67c.5.19,1,.37,1.5.57,5.45,2.14,9.82,4.67,12.64,7.29,1.55,1.43,3.39,3.62,3.39,5.89C137.05,69.56,135,71.92,133.18,73.45Z"/>
          <rect class="cls-1" x="29.86" y="-16.57" width="8.24" height="60.02" transform="translate(11.72 42.43) rotate(-74.06)"/>
        </g>
      </g>
    </g>
  </g>
</svg>
