<svg xmlns="http://www.w3.org/2000/svg" viewBox="0 0 148.41 148.26">
  <defs>
    <style>
      .cls-1 {
        fill: #9d72ff;
      }

      .cls-2 {
        fill: #01ffff;
      }
    </style>
  </defs>
  <g id="Layer_2" data-name="Layer 2">
    <g id="drum-top">
      <path class="cls-1" d="M141.09,50.85A48.44,48.44,0,0,0,128,42.58l19.21-19.21-5.83-5.83L119.59,39.33A122.15,122.15,0,0,0,101.68,35a167,167,0,0,0-27.47-2.2A167,167,0,0,0,46.74,35a113.77,113.77,0,0,0-22.88,6.09c-7,2.75-12.53,6-16.53,9.74C1.27,56.49,0,62.09,0,65.8v49.47c0,3.71,1.27,9.32,7.33,15,4,3.72,9.56,7,16.53,9.75a113.77,113.77,0,0,0,22.88,6.09,167,167,0,0,0,27.47,2.2,167,167,0,0,0,27.47-2.2A113.66,113.66,0,0,0,124.55,140c7-2.75,12.54-6,16.54-9.75,6-5.63,7.32-11.24,7.32-15V65.8C148.41,62.09,147.14,56.49,141.09,50.85ZM15.75,121.17a10.32,10.32,0,0,1-3.3-5,5.12,5.12,0,0,1-.08-.87V87.73l9.38,37.62A30.31,30.31,0,0,1,15.75,121.17ZM20,84.33c1.95,1,4.06,1.87,6.35,2.73a107.36,107.36,0,0,0,16.41,4.58L29,120.52Zm41.72,51.08h-.13q-6.2-.48-12.13-1.44a114.26,114.26,0,0,1-15.39-3.52l-.47-.14-.09,0L48.81,98.16l17.81,37.53C65,135.62,63.35,135.53,61.74,135.41Zm-6-41.77a166.13,166.13,0,0,0,18.42,1,165.81,165.81,0,0,0,18.41-1L74.21,132.45Zm59,36.66-.46.14A114.26,114.26,0,0,1,98.94,134c-4,.64-8,1.12-12.13,1.44h-.13c-1.61.12-3.25.21-4.88.28L99.61,98.16l15.28,32.1Zm4.59-9.78L105.63,91.64A108.51,108.51,0,0,0,122,87.06c2.29-.86,4.4-1.77,6.36-2.73Zm16.67-5.25a5.14,5.14,0,0,1-.09.87c-.38,2-2,3.77-3.29,5a30.92,30.92,0,0,1-6,4.18l9.38-37.62Zm-3.87-43.06c-3,2.58-7.46,5-13,7.13a106.06,106.06,0,0,1-20.21,5.15,155.17,155.17,0,0,1-24.73,1.93,155.39,155.39,0,0,1-24.74-1.93,105.75,105.75,0,0,1-20.2-5.15c-5.57-2.09-10.08-4.55-13-7.13-1.76-1.53-3.86-3.88-3.86-6.41,0-2.27,1.84-4.46,3.38-5.89,2.82-2.62,7.19-5.15,12.65-7.29a101.06,101.06,0,0,1,20.37-5.4,154.42,154.42,0,0,1,25.44-2,154.39,154.39,0,0,1,25.43,2q5.25.87,10,2.09L96,62.89l5.83,5.83,16.66-16.66,1.5.56c5.45,2.15,9.82,4.67,12.64,7.29,1.55,1.43,3.39,3.62,3.39,5.89C136.05,68.33,134,70.68,132.18,72.21Z"/>
      <rect class="cls-2" x="28.86" y="-17.8" width="8.24" height="60.02" transform="translate(12.18 40.57) rotate(-74.06)"/>
    </g>
  </g>
</svg>
