<svg xmlns="http://www.w3.org/2000/svg" viewBox="0 0 150.11 90.07">
  <defs>
    <style>
      .cls-1 {
        fill: #01ffff;
      }

      .cls-2 {
        fill: #9d72ff;
      }
    </style>
  </defs>
  <g id="Layer_2" data-name="Layer 2">
    <g id="_808" data-name="808">
      <g>
        <circle cx="38.36" cy="71.39" r="0.67"/>
        <circle cx="123.43" cy="71.39" r="0.67"/>
        <circle cx="89.4" cy="71.39" r="0.67"/>
        <circle cx="44.03" cy="71.39" r="0.67"/>
        <circle cx="83.73" cy="71.39" r="0.67"/>
        <circle cx="49.7" cy="71.39" r="0.67"/>
        <circle cx="55.38" cy="71.39" r="0.67"/>
        <path class="cls-1" d="M135.1,71.39h-5.34v4.33h5.34Zm-1,3.33h-3.33V72.39h3.33Z"/>
        <circle cx="100.74" cy="71.39" r="0.67"/>
        <circle cx="61.05" cy="71.39" r="0.67"/>
        <circle cx="106.41" cy="71.39" r="0.67"/>
        <circle cx="95.07" cy="71.39" r="0.67"/>
        <circle cx="112.08" cy="71.39" r="0.67"/>
        <circle cx="117.76" cy="71.39" r="0.67"/>
        <path class="cls-1" d="M135.77,50.87a2.16,2.16,0,0,0-1.67-2.1v1.94h-1V48.77a2.17,2.17,0,1,0,2.67,2.1Z"/>
        <circle cx="66.72" cy="71.39" r="0.67"/>
        <path class="cls-1" d="M20.85,52.37a7.51,7.51,0,1,0-7.51-7.5A7.5,7.5,0,0,0,20.85,52.37Zm0-12.34A4.84,4.84,0,1,1,16,44.87,4.84,4.84,0,0,1,20.85,40Z"/>
        <circle cx="72.39" cy="71.39" r="0.67"/>
        <path class="cls-1" d="M31.19,34a2.17,2.17,0,0,0,.5-4.27v1.93h-1V29.76a2.17,2.17,0,0,0,.5,4.27Z"/>
        <path class="cls-1" d="M20.68,21.85A2.16,2.16,0,0,0,19,19.75v1.93H18V19.75a2.17,2.17,0,1,0,2.67,2.1Z"/>
        <circle cx="78.06" cy="71.39" r="0.67"/>
        <path class="cls-1" d="M31.19,24a2.17,2.17,0,0,0,.5-4.27v1.93h-1V19.75a2.17,2.17,0,0,0,.5,4.27Z"/>
        <path class="cls-1" d="M15.34,75.72h11V71.39h-11Zm1-3.33h9v2.33h-9Z"/>
        <path class="cls-2" d="M140.11,0V1.67H10V0H0V90.07H10V88.4h130.1v1.67h10V0ZM20.85,36.36a8.51,8.51,0,1,1-8.51,8.51h0A8.51,8.51,0,0,1,20.85,36.36ZM15.34,21.85A3.17,3.17,0,1,1,18.51,25a3.17,3.17,0,0,1-3.17-3.17Zm15.85,6.84A3.17,3.17,0,1,1,28,31.86,3.17,3.17,0,0,1,31.19,28.69ZM28,21.85A3.17,3.17,0,1,1,31.19,25,3.17,3.17,0,0,1,28,21.85Zm74.72,59.54H12.34V58h17V78.39h73.38Zm-34-20.68v1.67H36.36V60.71Zm-32.36-1V58H51.71v1.67Zm66.38,1v1.67H70.39V60.71Zm-32.35-1V58H85.73v1.67Zm55,1v1.67h-21V60.71Zm-21-1V58h15.35v1.67Zm17,0V58h4v1.67Zm4,3.67v1.67h-21V63.38Zm0,2.67v1.67H81.73V66.05Zm0,3.67v7h-4v-7Zm-5.67,0v7h-4v-7Zm-5.67,0v7h-4v-7Zm-5.67,0v7h-4v-7Zm-11.35,0v7h-4v-7Zm-5.67,0v7h-4v-7Zm-5.67,0v7h-4v-7Zm-4-4.67V63.38h21v1.67Zm21-5.34H87.4V58h15.34ZM80.06,63.38v1.67H59V63.38ZM68.72,59.71H53.37V58H68.72ZM57.38,63.38v1.67h-21V63.38Zm22.68,2.67v1.67H36.36V66.05Zm0,3.67v7h-4v-7Zm-5.67,0v7h-4v-7Zm-5.67,0v7h-4v-7Zm-5.67,0v7H59v-7Zm-5.67,0v7h-4v-7Zm-5.67,0v7h-4v-7Zm-5.68,0v7H42v-7Zm-5.67,0v7h-4v-7Zm62.38,7h-4v-7h4Zm35,4.67H104.41v-3H127.1V58h10.67Zm0-24.35H12.34V56H137.77Zm-7.34-6.17A3.17,3.17,0,1,1,133.6,54a3.17,3.17,0,0,1-3.17-3.17ZM137.77,45H36.36V43.37H137.77ZM40,18.85A2.17,2.17,0,1,1,42.2,21h0A2.17,2.17,0,0,1,40,18.85Zm10,6.9V27.7h1V25.75A2.17,2.17,0,0,1,50,30a2.17,2.17,0,0,1,0-4.22Zm-1.67-6.9A2.17,2.17,0,1,1,50.54,21h0A2.17,2.17,0,0,1,48.37,18.85ZM50,34.76v1.93h1V34.76a2.17,2.17,0,1,1-1,0Zm8.34-9v2h1v-2a2.17,2.17,0,1,1-1,0Zm-1.67-6.87A2.17,2.17,0,1,1,58.88,21h0A2.17,2.17,0,0,1,56.71,18.85Zm1.67,15.88v2h1v-2a2.17,2.17,0,1,1-1,0Zm8.34-9v2h1v-2a2.17,2.17,0,1,1-1,0Zm-1.67-6.87A2.17,2.17,0,1,1,67.22,21h0A2.17,2.17,0,0,1,65.05,18.85Zm39,17.51V38H64.38V36.36Zm-29-10.64v2h1v-2a2.17,2.17,0,1,1-1,0Zm-1.67-6.87A2.17,2.17,0,1,1,75.56,21h0A2.17,2.17,0,0,1,73.39,18.85Zm10,6.87v2h1v-2a2.17,2.17,0,1,1-1,0Zm-1.67-6.87A2.17,2.17,0,1,1,83.9,21h0A2.17,2.17,0,0,1,81.73,18.85Zm8.34,0A2.17,2.17,0,1,1,92.24,21h0A2.17,2.17,0,0,1,90.07,18.85Zm8.34,0A2.17,2.17,0,1,1,100.58,21a2.17,2.17,0,0,1-2.17-2.17Zm8.34,0A2.17,2.17,0,1,1,108.92,21a2.17,2.17,0,0,1-2.17-2.17Zm10,6.87v2h1v-2a2.17,2.17,0,1,1-2.61,1.61A2.15,2.15,0,0,1,116.75,25.72Zm-1.66-6.87A2.17,2.17,0,1,1,117.26,21a2.17,2.17,0,0,1-2.17-2.17Zm1.66,15.88v2h1v-2a2.16,2.16,0,1,1-1,0Zm8.34,0v2h1v-2a2.16,2.16,0,1,1-1,0Zm-1.66-15.88A2.17,2.17,0,1,1,125.59,21a2.17,2.17,0,0,1-2.16-2.17Zm8.34,0A2.17,2.17,0,1,1,133.93,21a2.17,2.17,0,0,1-2.16-2.17Zm6-4.17H12.34v-1H137.77Z"/>
        <path class="cls-2" d="M20.85,48.7a3.84,3.84,0,0,0,.5-7.64V43.7h-1V41.06a3.84,3.84,0,0,0,.5,7.64Z"/>
      </g>
    </g>
  </g>
</svg>
