<svg xmlns="http://www.w3.org/2000/svg" viewBox="0 0 146.82 111.23">
  <defs>
    <style>
      .cls-1 {
        fill: #fff;
      }
    </style>
  </defs>
  <g id="Layer_2" data-name="Layer 2">
    <g id="white">
      <g id="full-drum">
        <g>
          <path class="cls-1" d="M90.69,95.81a35.59,35.59,0,1,1,41.08,0l10.07,11.75a2.22,2.22,0,0,1-3.38,2.89L127.94,98.17a35.64,35.64,0,0,1-33.42,0L84,110.45a2.22,2.22,0,0,1-3.38-2.89L90.69,95.81Z"/>
          <path class="cls-1" d="M53.39,46.72V73.41h2.22a2.23,2.23,0,1,1,0,4.45H31.14V94.74l12.7,12.69a2.23,2.23,0,0,1-3.15,3.15L28.92,98.8,17.15,110.58A2.23,2.23,0,0,1,14,107.43L26.69,94.74V77.86H2.22a2.23,2.23,0,0,1,0-4.45H4.45V46.72H2.22a2.23,2.23,0,0,1,0-4.45H55.61a2.23,2.23,0,1,1,0,4.45Z"/>
          <rect class="cls-1" x="8.9" y="46.72" width="40.04" height="26.69"/>
          <circle class="cls-1" cx="111.23" cy="82.31" r="8.9"/>
          <circle class="cls-1" cx="111.23" cy="82.31" r="4.45"/>
          <path class="cls-1" d="M69,11.14a134.92,134.92,0,0,0-21.85,2.17,2.23,2.23,0,0,1-.79-4.38A138.82,138.82,0,0,1,69,6.69V2.22a2.23,2.23,0,0,1,4.45,0V6.69A138.82,138.82,0,0,1,96.05,8.93a2.23,2.23,0,1,1-.79,4.38,134.92,134.92,0,0,0-21.85-2.17V35.59a2.23,2.23,0,1,1-4.45,0V11.14Z"/>
        </g>
      </g>
    </g>
  </g>
</svg>
