<svg xmlns="http://www.w3.org/2000/svg" viewBox="0 0 148.82 112.23">
  <defs>
    <style>
      .cls-1 {
        fill: none;
        stroke: #9d72ff;
        stroke-miterlimit: 10;
        stroke-width: 2px;
      }

      .cls-2 {
        fill: #01ffff;
      }

      .cls-3 {
        fill: #9d72ff;
      }
    </style>
  </defs>
  <g id="Layer_2" data-name="Layer 2">
    <g id="full-drum">
      <g>
        <path class="cls-1" d="M91.69,95.81a35.59,35.59,0,1,1,41.08,0l10.07,11.75a2.22,2.22,0,0,1-3.38,2.89L128.94,98.17a35.64,35.64,0,0,1-33.42,0L85,110.45a2.22,2.22,0,0,1-3.38-2.89L91.69,95.81Z"/>
        <path class="cls-1" d="M54.39,46.72V73.41h2.22a2.23,2.23,0,1,1,0,4.45H32.14V94.74l12.7,12.69a2.23,2.23,0,0,1-3.15,3.15L29.92,98.8,18.15,110.58A2.23,2.23,0,0,1,15,107.43L27.69,94.74V77.86H3.22a2.23,2.23,0,0,1,0-4.45H5.45V46.72H3.22a2.23,2.23,0,0,1,0-4.45H56.61a2.23,2.23,0,1,1,0,4.45Z"/>
        <rect class="cls-2" x="9.9" y="46.72" width="40.04" height="26.69"/>
        <circle class="cls-2" cx="112.23" cy="82.31" r="8.9"/>
        <circle class="cls-3" cx="112.23" cy="82.31" r="4.45"/>
        <path class="cls-2" d="M70,11.14a134.92,134.92,0,0,0-21.85,2.17,2.23,2.23,0,0,1-.79-4.38A138.82,138.82,0,0,1,70,6.69V2.22a2.23,2.23,0,0,1,4.45,0V6.69A138.82,138.82,0,0,1,97.05,8.93a2.23,2.23,0,1,1-.79,4.38,134.92,134.92,0,0,0-21.85-2.17V35.59a2.23,2.23,0,1,1-4.45,0V11.14Z"/>
      </g>
    </g>
  </g>
</svg>
