<svg xmlns="http://www.w3.org/2000/svg" viewBox="0 0 150.72 144.32">
  <defs>
    <style>
      .cls-1 {
        fill: none;
        stroke: #fff;
        stroke-miterlimit: 10;
        stroke-width: 3px;
      }
    </style>
  </defs>
  <g id="Layer_2" data-name="Layer 2">
    <g id="white">
      <g id="kick">
        <g>
          <path class="cls-1" d="M147.09,134.45l-8.7-50.23a64.05,64.05,0,0,0,2-11.16,2.3,2.3,0,0,0,1.15.33h.65a1.82,1.82,0,0,0,1.81-1.8V62.23a1.82,1.82,0,0,0-1.81-1.81h-.65a2.4,2.4,0,0,0-1.15.33A65.61,65.61,0,0,0,125.42,25a2.1,2.1,0,0,0,.82-.49l.49-.49a2,2,0,0,0,0-2.63l-6.56-6.57a2,2,0,0,0-2.63,0l-.49.5a3.46,3.46,0,0,0-.49.82A65,65,0,0,0,75.69,1.5h0a33.28,33.28,0,0,0-3.45.16A64.21,64.21,0,0,0,34.33,16.11c-.17-.17-.17-.49-.5-.66L33.34,15a2,2,0,0,0-2.62,0l-6.57,6.56a2,2,0,0,0,0,2.63l.49.49c.17.17.33.33.5.33A64.79,64.79,0,0,0,10.2,60.75a2.42,2.42,0,0,0-1-.33H8.56a1.82,1.82,0,0,0-1.81,1.81v9.36a1.82,1.82,0,0,0,1.81,1.8h.65a2.28,2.28,0,0,0,1-.33,51.54,51.54,0,0,0,2.13,11.16l-8.7,50.23a2.47,2.47,0,0,0-2.13,2.46V140A2.53,2.53,0,0,0,4,142.49H6.42A2.53,2.53,0,0,0,8.89,140v-3.12a2.32,2.32,0,0,0-1.65-2.3l7.55-42.84a65.83,65.83,0,0,0,9.36,16.09c-.16.16-.33.16-.49.33l-.49.49a2,2,0,0,0,0,2.63l6.56,6.56a2,2,0,0,0,2.63,0l.49-.49c.16-.17.16-.33.33-.33a65,65,0,0,0,42.18,15.43h3.12a44.06,44.06,0,0,0,4.59-.33h.17a64.46,64.46,0,0,0,36.11-16.41c.16.16.33.49.49.65l.49.5a1.84,1.84,0,0,0,2.63-.17l6.24-6.89a1.84,1.84,0,0,0-.17-2.63l-.49-.49a1.25,1.25,0,0,0-.66-.33,59,59,0,0,0,8.05-14.44l7.55,43a2.32,2.32,0,0,0-1.65,2.3v3.12a2.53,2.53,0,0,0,2.47,2.46h2.46a2.53,2.53,0,0,0,2.46-2.46v-3.12A2.58,2.58,0,0,0,147.09,134.45Z"/>
          <path class="cls-1" d="M73.72,126.73c-1.64,0-3.45-.16-5.09-.32V112.29h5.09Z"/>
          <path class="cls-1" d="M82.42,126.41a35.64,35.64,0,0,1-4.27.32h-.82V112.29h4.92v14.12Z"/>
          <path class="cls-1" d="M86.19,125.75V112.29a3.71,3.71,0,0,0-3.77-3.77H77.49V78h.82a5.55,5.55,0,0,0,5.59-5.58V65.18a5.55,5.55,0,0,0-5.59-5.58H72.57A5.54,5.54,0,0,0,67,65.18v7.23A5.54,5.54,0,0,0,72.57,78h1.15v30.53H68.63a3.71,3.71,0,0,0-3.77,3.77v13.46A59.75,59.75,0,0,1,72.41,7.24h3A59.74,59.74,0,0,1,86.19,125.75Z"/>
        </g>
      </g>
    </g>
  </g>
</svg>
