<svg xmlns="http://www.w3.org/2000/svg" viewBox="0 0 102.52 147.42">
  <defs>
    <style>
      .cls-1, .cls-2 {
        fill: none;
        stroke-linecap: round;
        stroke-linejoin: round;
        stroke-width: 4.42px;
      }

      .cls-1 {
        stroke: #01ffff;
      }

      .cls-2 {
        stroke: #9d72ff;
      }
    </style>
  </defs>
  <g id="Layer_2" data-name="Layer 2">
    <g id="open-hi-hats">
      <g>
        <g>
          <line class="cls-1" x1="51.26" y1="24.81" x2="51.26" y2="33.97"/>
          <line class="cls-1" x1="51.26" y1="45.14" x2="51.26" y2="141.8"/>
          <polyline class="cls-1" points="21.48 145.21 51.26 115.43 81.04 145.21"/>
        </g>
        <g>
          <g>
            <line class="cls-2" x1="2.21" y1="33.97" x2="100.31" y2="33.97"/>
            <path class="cls-2" d="M10.07,34c8.8,0,17.35,10.65,41.19,10.65C75.35,44.62,81.11,34,92.46,34Z"/>
            <path class="cls-2" d="M10.07,23.74c8.8,0,17.35-10.64,41.19-10.64,24.09,0,29.85,10.64,41.2,10.64Z"/>
          </g>
          <line class="cls-2" x1="100.31" y1="23.78" x2="2.21" y2="23.78"/>
        </g>
        <g>
          <line class="cls-1" x1="51.63" y1="13.08" x2="51.63" y2="8.79"/>
          <path class="cls-1" d="M54.66,5.24a3,3,0,1,1-3-3A3,3,0,0,1,54.66,5.24Z"/>
        </g>
      </g>
    </g>
  </g>
</svg>
