<svg xmlns="http://www.w3.org/2000/svg" viewBox="0 0 114.89 141.74">
  <defs>
    <style>
      .cls-1 {
        fill: #9d72ff;
      }

      .cls-2 {
        fill: #01ffff;
      }
    </style>
  </defs>
  <g id="Layer_2" data-name="Layer 2">
    <g id="snap">
      <g>
        <path class="cls-1" d="M94.38,20.1c.2.21.62.21,1,.21a2.21,2.21,0,0,0,1.89-1l6.07-11.09a2.16,2.16,0,1,0-3.77-2.1l-6.07,11.1A2,2,0,0,0,94.38,20.1Z"/>
        <path class="cls-1" d="M63.18,21.15a1.92,1.92,0,0,0,1.67.83,3.11,3.11,0,0,0,1.26-.41,1.88,1.88,0,0,0,.42-2.94L59.41,8.17a1.87,1.87,0,0,0-2.93-.42,1.87,1.87,0,0,0-.42,2.93Z"/>
        <path class="cls-1" d="M78.25,18.42a2,2,0,0,0,2.1-2.09V2.09a2.1,2.1,0,0,0-4.19,0V16.33A2,2,0,0,0,78.25,18.42Z"/>
        <path class="cls-2" d="M104.84,42.5a9.81,9.81,0,0,0-7.32,3.14l-17.8,17.8a5.74,5.74,0,0,1-5.23,0L46,35h0L23.19,12.14h0A10.7,10.7,0,0,0,15.86,9a9.85,9.85,0,0,0-7.33,3.14,10.51,10.51,0,0,0,0,14.66h0l17,17a10.42,10.42,0,0,0-5.86,2.93A10,10,0,0,0,17.54,58a10.51,10.51,0,0,0-6.7,3.14A10.13,10.13,0,0,0,7.7,68.26a10.35,10.35,0,0,0,1.46,5.65A11.49,11.49,0,0,0,3.3,77.05c-4,4-4.4,10.26-1,13.61h0l28.69,28.68A16.91,16.91,0,0,0,33.45,121,9,9,0,0,0,35.33,124a2.9,2.9,0,0,0,.84.63h0l12.56,12.56.42.42A16.1,16.1,0,0,0,60,141.74a15.38,15.38,0,0,0,11.72-5.23L96.26,112a16.15,16.15,0,0,0,5.23-11.93c0-3.35-3.76-15.7-6.49-23.45l16.54-16.54.21-.21a10.64,10.64,0,0,0,3.14-7.33,9.81,9.81,0,0,0-3.14-7.33A9.45,9.45,0,0,0,104.84,42.5ZM22.56,49.41a6.46,6.46,0,0,1,8.79,0L65.48,83.54a6.44,6.44,0,0,1,0,8.79,6,6,0,0,1-7.33.84c-.41-.21-.83-.63-1.25-.84L23.19,58.62a.21.21,0,0,0-.21-.21C20.05,55.69,20.05,51.92,22.56,49.41Zm-9,14.45c2.3-2.3,6.28-2.51,8.37-.42l31.2,31.2.84.83a4.8,4.8,0,0,1,1.46,4,6.05,6.05,0,0,1-1.88,4.4,6.3,6.3,0,0,1-6.7,1.46,4.55,4.55,0,0,1-1.68-1l-.62-.63-.21-.21L16.91,76h0l-3.56-3.56-.21-.21a4.75,4.75,0,0,1-1.47-4A7,7,0,0,1,13.56,63.86Zm-8,24.08c0-.21-.21-.21-.42-.42-1.88-1.89-1.46-5.45,1.05-7.75a7.2,7.2,0,0,1,4.82-2.09,5.15,5.15,0,0,1,3.14,1,.21.21,0,0,0,.21.21l27.21,27.22.21.21,1.26,1.26a4.9,4.9,0,0,1,1.26,3.56,6.68,6.68,0,0,1-2.1,4.18,6.91,6.91,0,0,1-5.44,2.1,1.59,1.59,0,0,1-.84-.21,2.83,2.83,0,0,1-1.67-1ZM109,57.37,91.44,75A1.67,1.67,0,0,0,91,77.05c4,12.14,6.7,21.35,6.7,23.45a11.92,11.92,0,0,1-4,8.79l-24.5,24.5a11.92,11.92,0,0,1-8.79,4,12.49,12.49,0,0,1-8.38-3.35c-.21-.21-.21-.21-.42-.21L39.73,122.27c0-.21-.21-.21-.42-.42a14.62,14.62,0,0,0,1.68-.62.69.69,0,0,0,.41-.21l1.26-.63a.73.73,0,0,0,.42-.21,9.13,9.13,0,0,0,1.47-1.26A11.3,11.3,0,0,0,47.89,112v-1.67h1a4.09,4.09,0,0,0,1.68-.21H51c.41-.21,1-.21,1.46-.42a.73.73,0,0,0,.42-.21,5.26,5.26,0,0,0,1.47-.84l.2-.21c.42-.41,1-.83,1.47-1.25a10.21,10.21,0,0,0,3.14-7.12V98.4h1.47a4.81,4.81,0,0,0,1.67-.2h.42c.42-.21,1.05-.21,1.47-.42.21,0,.41-.21.62-.21l1.26-.63c.21,0,.21-.21.42-.21.42-.42,1-.63,1.46-1A10.48,10.48,0,0,0,68,81L33.87,46.9,11.46,24.5c0-.21-.2-.21-.41-.42a6.07,6.07,0,0,1,0-8.8,6,6,0,0,1,8.58,0c0,.21.21.21.42.42L42.66,38.31c0,.21.21.21.42.42L71.55,67.21c.21.21.42.21.42.42a11.13,11.13,0,0,0,9.63,0,.45.45,0,0,0,.42-.42l18-18a6.46,6.46,0,0,1,8.79,0,6,6,0,0,1,1.89,4.4C110.92,54.44,110.29,56.11,109,57.37Z"/>
      </g>
    </g>
  </g>
</svg>
